<svg width="17" height="16" viewBox="0 0 17 16" fill="none" xmlns="http://www.w3.org/2000/svg">
<path d="M10.81 9.33333H10.2833L10.0966 9.15333C10.75 8.39333 11.1433 7.40667 11.1433 6.33333C11.1433 3.94 9.20329 2 6.80996 2C4.41662 2 2.47662 3.94 2.47662 6.33333C2.47662 8.72667 4.41662 10.6667 6.80996 10.6667C7.88329 10.6667 8.86996 10.2733 9.62996 9.62L9.80996 9.80667V10.3333L13.1433 13.66L14.1366 12.6667L10.81 9.33333ZM6.80996 9.33333C5.14996 9.33333 3.80996 7.99333 3.80996 6.33333C3.80996 4.67333 5.14996 3.33333 6.80996 3.33333C8.46996 3.33333 9.80996 4.67333 9.80996 6.33333C9.80996 7.99333 8.46996 9.33333 6.80996 9.33333Z" fill="black"/>
</svg>
